<svg width="56" height="56" viewBox="0 0 56 56" fill="none" xmlns="http://www.w3.org/2000/svg">
<g id="Type=Photos, State=Default, Direction=LTR">
<g id="Frame 1104220813">
<g id="Illustration">
<g id="Rectangle 3469844">
<rect x="18.375" y="16.6989" width="32.375" height="32.375" rx="4.375" fill="url(#paint0_linear_45034_10244)" fill-opacity="0.6"/>
<rect x="18.5938" y="16.9176" width="31.9375" height="31.9375" rx="4.15625" stroke="url(#paint1_linear_45034_10244)" stroke-opacity="0.8" stroke-width="0.4375"/>
</g>
<g id="Rectangle 3469845">
<rect x="4.375" y="15.859" width="32.5528" height="32.5528" rx="4.375" transform="rotate(-20 4.375 15.859)" fill="url(#paint2_linear_45034_10244)"/>
<rect x="4.09463" y="15.7283" width="32.9903" height="32.9903" rx="4.59375" transform="rotate(-20 4.09463 15.7283)" stroke="url(#paint3_linear_45034_10244)" stroke-opacity="0.6" stroke-width="0.4375"/>
</g>
<g id="Union" filter="url(#filter0_i_45034_10244)">
<path fill-rule="evenodd" clip-rule="evenodd" d="M27.974 22.3211C29.4715 21.776 30.2436 20.1202 29.6985 18.6228C29.1535 17.1253 27.4977 16.3532 26.0002 16.8982C24.5028 17.4433 23.7307 19.0991 24.2757 20.5965C24.8207 22.094 26.4765 22.8661 27.974 22.3211ZM16.9098 35.7569L19.3211 25.1911C19.5874 24.0242 20.9203 23.463 21.9411 24.088L28.2613 27.9578C29.2207 28.5452 30.4771 28.0879 30.8344 27.0212L31.1158 26.1814C31.4995 25.036 32.9009 24.6146 33.8527 25.3584L37.5679 28.2617C38.6508 29.1079 38.3804 30.815 37.0889 31.285L19.2145 37.7908C17.9119 38.2649 16.6014 37.1084 16.9098 35.7569Z" fill="url(#paint4_linear_45034_10244)" style="mix-blend-mode:multiply"/>
</g>
</g>
</g>
</g>
<defs>
<filter id="filter0_i_45034_10244" x="16.8643" y="16.7234" width="21.3765" height="22.9256" filterUnits="userSpaceOnUse" color-interpolation-filters="sRGB">
<feFlood flood-opacity="0" result="BackgroundImageFix"/>
<feBlend mode="normal" in="SourceGraphic" in2="BackgroundImageFix" result="shape"/>
<feColorMatrix in="SourceAlpha" type="matrix" values="0 0 0 0 0 0 0 0 0 0 0 0 0 0 0 0 0 0 127 0" result="hardAlpha"/>
<feOffset dy="1.75"/>
<feGaussianBlur stdDeviation="1.3125"/>
<feComposite in2="hardAlpha" operator="arithmetic" k2="-1" k3="1"/>
<feColorMatrix type="matrix" values="0 0 0 0 0.282298 0 0 0 0 0.319983 0 0 0 0 0.650456 0 0 0 0.5 0"/>
<feBlend mode="normal" in2="shape" result="effect1_innerShadow_45034_10244"/>
</filter>
<linearGradient id="paint0_linear_45034_10244" x1="50.75" y1="48.4749" x2="31.92" y2="40.7512" gradientUnits="userSpaceOnUse">
<stop stop-color="#B2BAFF"/>
<stop offset="1" stop-color="#4759F5"/>
</linearGradient>
<linearGradient id="paint1_linear_45034_10244" x1="18.375" y1="30.9749" x2="50.75" y2="49.3499" gradientUnits="userSpaceOnUse">
<stop stop-color="#C3C9FC"/>
<stop offset="1" stop-color="#7683F5"/>
</linearGradient>
<linearGradient id="paint2_linear_45034_10244" x1="5.78892" y1="11.9743" x2="32.6142" y2="53.3972" gradientUnits="userSpaceOnUse">
<stop stop-color="#F5F6FF"/>
<stop offset="1" stop-color="#C8CEFE"/>
</linearGradient>
<linearGradient id="paint3_linear_45034_10244" x1="4.66591" y1="17.6181" x2="36.0921" y2="47.6794" gradientUnits="userSpaceOnUse">
<stop stop-color="#929BED" stop-opacity="0.2"/>
<stop offset="1" stop-color="white"/>
</linearGradient>
<linearGradient id="paint4_linear_45034_10244" x1="24.9376" y1="13.4747" x2="29.2219" y2="38.7841" gradientUnits="userSpaceOnUse">
<stop stop-color="#4759F5"/>
<stop offset="1" stop-color="#4759F5" stop-opacity="0"/>
</linearGradient>
</defs>
</svg>
